HIERARCHY
ROOT Hips
{
  OFFSET 5.84602e-005 68.8428 3.50346
  CHANNELS 6 Xposition Yposition Zposition Zrotation Xrotation Yrotation
  JOINT Spine
  {
    OFFSET 0 8.597 -4.6522
    CHANNELS 3 Zrotation Xrotation Yrotation
    JOINT Spine1
    {
      OFFSET 0 7.8454 0.4098
      CHANNELS 3 Zrotation Xrotation Yrotation
      JOINT Spine2
      {
        OFFSET 0 9.7078 -2.1609
        CHANNELS 3 Zrotation Xrotation Yrotation
        JOINT Neck
        {
          OFFSET 0 21.8761 -0.4549
          CHANNELS 3 Zrotation Xrotation Yrotation
          JOINT Head
          {
            OFFSET 0 12.3537 3.3602
            CHANNELS 3 Zrotation Xrotation Yrotation
            End Site
            {
              OFFSET 0.0001 18.9506 0.5657
            }
          }
        }
        JOINT LeftShoulder
        {
          OFFSET 2.2086 21.1115 7.2329
          CHANNELS 3 Zrotation Xrotation Yrotation
          JOINT LeftArm
          {
            OFFSET 13.1193 3.0282 -4.8998
            CHANNELS 3 Zrotation Xrotation Yrotation
            JOINT LeftForeArm
            {
              OFFSET 27.4081 -0.0973053 -0.2375
              CHANNELS 3 Zrotation Xrotation Yrotation
              JOINT LeftHand
              {
                OFFSET 22.8641 0.0662994 -0.1369
                CHANNELS 3 Zrotation Xrotation Yrotation
                JOINT LeftHandIndex1
                {
                  OFFSET 8.8614 0.775009 2.4612
                  CHANNELS 3 Zrotation Xrotation Yrotation
                  JOINT LeftHandIndex2
                  {
                    OFFSET 3.3146 -0.808304 0.5841
                    CHANNELS 3 Zrotation Xrotation Yrotation
                    JOINT LeftHandIndex3
                    {
                      OFFSET 2.2628 -0.552002 0.3989
                      CHANNELS 3 Zrotation Xrotation Yrotation
                      End Site
                      {
                        OFFSET 1.6102 -0.4807 0.2612
                      }
                    }
                  }
                }
                JOINT LeftHandMiddle1
                {
                  OFFSET 8.9937 0.895004 0.2143
                  CHANNELS 3 Zrotation Xrotation Yrotation
                  JOINT LeftHandMiddle2
                  {
                    OFFSET 4.0984 0.0113983 -0.0242
                    CHANNELS 3 Zrotation Xrotation Yrotation
                    JOINT LeftHandMiddle3
                    {
                      OFFSET 2.2716 0.00689697 -0.0138001
                      CHANNELS 3 Zrotation Xrotation Yrotation
                      End Site
                      {
                        OFFSET 2.0404 -0.1441 0.0027
                      }
                    }
                  }
                }
                JOINT LeftHandRing1
                {
                  OFFSET 8.5234 0.597198 -2.0164
                  CHANNELS 3 Zrotation Xrotation Yrotation
                  JOINT LeftHandRing2
                  {
                    OFFSET 3.7188 -0.188293 -0.2328
                    CHANNELS 3 Zrotation Xrotation Yrotation
                    JOINT LeftHandRing3
                    {
                      OFFSET 2.1191 -0.106598 -0.1332
                      CHANNELS 3 Zrotation Xrotation Yrotation
                      End Site
                      {
                        OFFSET 1.8737 -0.2304 -0.0886
                      }
                    }
                  }
                }
                JOINT LeftHandPinky1
                {
                  OFFSET 7.9094 -0.601089 -3.4825
                  CHANNELS 3 Zrotation Xrotation Yrotation
                  JOINT LeftHandPinky2
                  {
                    OFFSET 2.2874 -0.477005 -0.6314
                    CHANNELS 3 Zrotation Xrotation Yrotation
                    JOINT LeftHandPinky3
                    {
                      OFFSET 1.6774 -0.349396 -0.4633
                      CHANNELS 3 Zrotation Xrotation Yrotation
                      End Site
                      {
                        OFFSET 1.4888 -0.4091 -0.3416
                      }
                    }
                  }
                }
                JOINT LeftHandThumb1
                {
                  OFFSET 1.833 -1.3875 1.3896
                  CHANNELS 3 Zrotation Xrotation Yrotation
                  JOINT LeftHandThumb2
                  {
                    OFFSET 3.4129 -1.121 2.5732
                    CHANNELS 3 Zrotation Xrotation Yrotation
                    JOINT LeftHandThumb3
                    {
                      OFFSET 2.2474 -0.804199 1.6192
                      CHANNELS 3 Zrotation Xrotation Yrotation
                      End Site
                      {
                        OFFSET 1.6527 -0.5689 1.1317
                      }
                    }
                  }
                }
              }
            }
          }
        }
        JOINT RightShoulder
        {
          OFFSET -2.2086 21.1115 7.2329
          CHANNELS 3 Zrotation Xrotation Yrotation
          JOINT RightArm
          {
            OFFSET -13.1216 3.0287 -4.9007
            CHANNELS 3 Zrotation Xrotation Yrotation
            JOINT RightForeArm
            {
              OFFSET -27.4081 -0.0973053 -0.2375
              CHANNELS 3 Zrotation Xrotation Yrotation
              JOINT RightHand
              {
                OFFSET -22.8641 0.0664063 -0.1369
                CHANNELS 3 Zrotation Xrotation Yrotation
                JOINT RightHandIndex1
                {
                  OFFSET -8.8614 0.774994 2.4612
                  CHANNELS 3 Zrotation Xrotation Yrotation
                  JOINT RightHandIndex2
                  {
                    OFFSET -3.3146 -0.808304 0.5841
                    CHANNELS 3 Zrotation Xrotation Yrotation
                    JOINT RightHandIndex3
                    {
                      OFFSET -2.2628 -0.552002 0.3989
                      CHANNELS 3 Zrotation Xrotation Yrotation
                      End Site
                      {
                        OFFSET -1.6102 -0.4807 0.2612
                      }
                    }
                  }
                }
                JOINT RightHandMiddle1
                {
                  OFFSET -8.9937 0.894989 0.2143
                  CHANNELS 3 Zrotation Xrotation Yrotation
                  JOINT RightHandMiddle2
                  {
                    OFFSET -4.0984 0.0113983 -0.0242
                    CHANNELS 3 Zrotation Xrotation Yrotation
                    JOINT RightHandMiddle3
                    {
                      OFFSET -2.2716 0.00691223 -0.0138001
                      CHANNELS 3 Zrotation Xrotation Yrotation
                      End Site
                      {
                        OFFSET -2.0404 -0.1441 0.0027
                      }
                    }
                  }
                }
                JOINT RightHandRing1
                {
                  OFFSET -8.5234 0.597198 -2.0164
                  CHANNELS 3 Zrotation Xrotation Yrotation
                  JOINT RightHandRing2
                  {
                    OFFSET -3.7188 -0.188309 -0.2328
                    CHANNELS 3 Zrotation Xrotation Yrotation
                    JOINT RightHandRing3
                    {
                      OFFSET -2.1191 -0.106598 -0.1332
                      CHANNELS 3 Zrotation Xrotation Yrotation
                      End Site
                      {
                        OFFSET -1.8737 -0.2304 -0.0886
                      }
                    }
                  }
                }
                JOINT RightHandPinky1
                {
                  OFFSET -7.9094 -0.601105 -3.4825
                  CHANNELS 3 Zrotation Xrotation Yrotation
                  JOINT RightHandPinky2
                  {
                    OFFSET -2.2874 -0.477005 -0.6314
                    CHANNELS 3 Zrotation Xrotation Yrotation
                    JOINT RightHandPinky3
                    {
                      OFFSET -1.6774 -0.349396 -0.4633
                      CHANNELS 3 Zrotation Xrotation Yrotation
                      End Site
                      {
                        OFFSET -1.4888 -0.4091 -0.3416
                      }
                    }
                  }
                }
                JOINT RightHandThumb1
                {
                  OFFSET -1.833 -1.38751 1.3896
                  CHANNELS 3 Zrotation Xrotation Yrotation
                  JOINT RightHandThumb2
                  {
                    OFFSET -3.41299 -1.12099 2.5732
                    CHANNELS 3 Zrotation Xrotation Yrotation
                    JOINT RightHandThumb3
                    {
                      OFFSET -2.24741 -0.804108 1.6192
                      CHANNELS 3 Zrotation Xrotation Yrotation
                      End Site
                      {
                        OFFSET -1.6527 -0.5689 1.1317
                      }
                    }
                  }
                }
              }
            }
          }
        }
      }
    }
  }
  JOINT RightUpLeg
  {
    OFFSET -9.1966 3.8861 -0.7581
    CHANNELS 3 Zrotation Xrotation Yrotation
    JOINT RightLeg
    {
      OFFSET -0.7359 -41.0265 0
      CHANNELS 3 Zrotation Xrotation Yrotation
      JOINT RightFoot
      {
        OFFSET 0 -40.2855 0
        CHANNELS 3 Zrotation Xrotation Yrotation
        JOINT RightToeBase
        {
          OFFSET 0 -5.6122 11.7359
          CHANNELS 3 Zrotation Xrotation Yrotation
          End Site
          {
            OFFSET 0 0 7.8731
          }
        }
      }
    }
  }
  JOINT LeftUpLeg
  {
    OFFSET 9.1965 3.8864 -0.7581
    CHANNELS 3 Zrotation Xrotation Yrotation
    JOINT LeftLeg
    {
      OFFSET 0.7359 -41.0268 0
      CHANNELS 3 Zrotation Xrotation Yrotation
      JOINT LeftFoot
      {
        OFFSET 0 -40.2855 0
        CHANNELS 3 Zrotation Xrotation Yrotation
        JOINT LeftToeBase
        {
          OFFSET 0 -5.6122 11.7359
          CHANNELS 3 Zrotation Xrotation Yrotation
          End Site
          {
            OFFSET 0 0 7.8731
          }
        }
      }
    }
  }
}
MOTION
Frames:	6
Frame Time:	0.0333333
-0.00463057 -18.6491 -0.360065 0 23.0555 -0 -0.245674 0.928282 -0.180185 -0.488521 1.85736 -0.356457 -0.488521 1.85734 -0.356457 -5.02108e-005 6.6082 -3.98087e-005 -1.04027e-007 8.92421 1.56147e-007 5.69307 15.3037 5.22328 -77.8762 -1.94945 1.40092 -26.2261 6.2251 0.123689 4.07529 6.16629 -28.4905 8.82107e-016 8.44835e-016 -3.18055e-015 5.912e-007 -1.23764e-007 6.06175e-008 1.36789e-014 -2.68359e-015 -6.36111e-015 8.82107e-016 8.44835e-016 -3.18055e-015 -0.0146243 -8.76808e-005 4.3227e-007 1.72694e-015 0 -1.59028e-015 8.82107e-016 8.44835e-016 -3.18055e-015 -0.0187596 -0.00117666 6.31527e-005 1.61513e-016 0 1.59028e-015 8.82107e-016 8.44835e-016 -3.18055e-015 -0.0122537 -0.0032439 0.00067977 3.35449e-016 -4.96962e-017 1.59028e-015 8.82107e-016 8.44835e-016 -3.18055e-015 5.912e-007 -1.23764e-007 6.06175e-008 1.36789e-014 -2.68359e-015 -6.36111e-015 5.31946 16.1714 -9.13611 74.2388 -1.88248 -4.36649 12.9945 3.00686 -0.150389 3.17813 6.08366 24.8283 3.70305e-007 -2.42374e-006 -2.30272e-006 1.19271e-015 1.59028e-015 -0 3.70305e-007 -2.42374e-006 -2.30272e-006 3.70305e-007 -2.42374e-006 -2.30272e-006 0.0150066 -9.12306e-005 -6.63076e-007 3.70226e-007 -2.42404e-006 -2.3024e-006 3.70305e-007 -2.42374e-006 -2.30272e-006 0.018988 -0.00119092 -5.96568e-005 3.70185e-007 -2.42411e-006 -2.30232e-006 3.70305e-007 -2.42374e-006 -2.30272e-006 0.0122867 -0.00325291 -0.000672518 3.70191e-007 -2.42397e-006 -2.30246e-006 3.70305e-007 -2.42374e-006 -2.30272e-006 1.19271e-015 1.59028e-015 -0 3.70305e-007 -2.42374e-006 -2.30272e-006 0.869935 -22.0104 -14.8988 -142.666 79.0278 140.548 11.5358 27.6776 -14.2421 -1.09693e-006 -2.80934e-006 2.37762e-006 -0.755975 -22.4393 14.2863 91.6671 82.9888 -90.4538 -28.9629 55.388 49.384 -1.71478e-006 -7.21066e-007 -1.75322e-006 
-0.00460201 -18.6479 -0.249031 0 22.7246 -0 -0.246601 1.19805 -0.179991 -0.489596 2.39688 -0.354937 -0.489596 2.39687 -0.354937 -3.24215e-006 6.60808 -2.97222e-006 -1.32818e-007 9.34991 -5.97299e-008 5.5761 14.458 5.15381 -77.8761 -1.94946 1.40101 -26.0572 6.15449 0.124081 3.93859 5.97307 -28.5044 1.11816e-016 -1.98785e-016 -4.77083e-015 -1.2424e-017 0 -6.36111e-015 -1.49089e-016 -1.49089e-016 -6.36111e-015 1.11816e-016 -1.98785e-016 -4.77083e-015 -0.0145987 -8.92976e-005 -2.09526e-006 8.69683e-017 -1.98785e-016 -1.59028e-015 1.11816e-016 -1.98785e-016 -4.77083e-015 -0.0187513 -0.0011754 5.86451e-005 -8.44835e-016 3.47873e-016 -4.77083e-015 1.11816e-016 -1.98785e-016 -4.77083e-015 -0.0122777 -0.00325195 0.000677148 -6.21202e-017 4.96962e-017 -1.59028e-015 1.11816e-016 -1.98785e-016 -4.77083e-015 -1.2424e-017 0 -6.36111e-015 -1.49089e-016 -1.49089e-016 -6.36111e-015 5.59502 15.3071 -8.95549 74.0706 -1.8612 -4.33314 12.8661 2.99123 -0.150589 3.27189 5.87924 24.879 3.71729e-007 -2.42388e-006 -2.30146e-006 -3.97569e-016 7.95139e-016 -6.36111e-015 3.71729e-007 -2.42388e-006 -2.30146e-006 3.71729e-007 -2.42388e-006 -2.30146e-006 0.0150052 -8.97521e-005 3.92707e-006 3.71649e-007 -2.42418e-006 -2.30115e-006 3.71729e-007 -2.42388e-006 -2.30146e-006 0.0189788 -0.00119101 -6.15852e-005 3.71608e-007 -2.42426e-006 -2.30107e-006 3.71729e-007 -2.42388e-006 -2.30146e-006 0.0122462 -0.00324414 -0.000675794 3.71615e-007 -2.42411e-006 -2.30121e-006 3.71729e-007 -2.42388e-006 -2.30146e-006 -3.97569e-016 7.95139e-016 -6.36111e-015 3.71729e-007 -2.42388e-006 -2.30146e-006 0.895222 -21.5567 -14.864 -142.726 79.0097 140.605 11.5359 27.6767 -14.2426 8.92029e-008 3.22e-008 1.91106e-007 -0.775515 -21.9839 14.2543 91.4399 82.9922 -90.2293 -28.961 55.3883 49.3822 1.78001e-007 -1.75306e-007 8.10993e-007 
-0.00457718 -18.6465 -0.138016 0 22.3936 -0 -0.247448 1.46751 -0.179764 -0.490528 2.9357 -0.353358 -0.490529 2.93571 -0.353358 1.58678e-005 6.6078 2.62886e-006 -3.3198e-007 9.77558 6.30591e-009 5.4585 13.6128 5.08281 -77.8759 -1.94945 1.40108 -25.8882 6.08462 0.124464 3.8019 5.77989 -28.5188 3.47873e-016 2.98177e-016 -3.18055e-015 -1.49932e-007 -1.27112e-006 1.1212e-006 -3.54009e-009 -7.4962e-008 1.19616e-006 3.47873e-016 2.98177e-016 -3.18055e-015 -0.0146073 -9.04259e-005 8.86184e-009 -3.52049e-009 -7.51144e-008 1.19615e-006 3.47873e-016 2.98177e-016 -3.18055e-015 -0.0187478 -0.0011766 5.72242e-005 -3.50394e-009 -7.51562e-008 1.19615e-006 3.47873e-016 2.98177e-016 -3.18055e-015 -0.0122709 -0.00325144 0.00067865 -3.49093e-009 -7.50859e-008 1.19615e-006 3.47873e-016 2.98177e-016 -3.18055e-015 -1.49932e-007 -1.27112e-006 1.1212e-006 -3.54009e-009 -7.4962e-008 1.19616e-006 5.87217 14.444 -8.77139 73.9023 -1.84004 -4.29974 12.7377 2.97582 -0.150784 3.36579 5.6749 24.9299 3.72999e-007 -2.42403e-006 -2.30021e-006 0 0 -6.36111e-015 3.72999e-007 -2.42403e-006 -2.30021e-006 3.72999e-007 -2.42403e-006 -2.30021e-006 0.0150041 -9.17975e-005 -8.67218e-007 3.72919e-007 -2.42433e-006 -2.29989e-006 3.72999e-007 -2.42403e-006 -2.30021e-006 0.0189949 -0.00119388 -6.14327e-005 3.72877e-007 -2.42441e-006 -2.29981e-006 3.72999e-007 -2.42403e-006 -2.30021e-006 0.0122829 -0.00325021 -0.000677757 3.72884e-007 -2.42426e-006 -2.29995e-006 3.72999e-007 -2.42403e-006 -2.30021e-006 0 0 -6.36111e-015 3.72999e-007 -2.42403e-006 -2.30021e-006 0.920109 -21.1029 -14.8296 -142.785 78.9915 140.662 11.536 27.6758 -14.2431 -1.70776e-006 -1.26507e-008 3.2933e-007 -0.794733 -21.5285 14.2225 91.2121 82.9955 -90.0042 -28.9591 55.3887 49.3804 1.44492e-006 -1.32276e-008 -1.16591e-006 
-0.00455037 -18.6449 -0.0270224 0 22.0626 -0 -0.248228 1.73639 -0.179509 -0.491348 3.47353 -0.351729 -0.491348 3.47353 -0.351729 -6.18804e-006 6.60807 -4.46634e-007 2.51596e-007 10.2012 -4.0441e-008 5.34026 12.7682 5.01026 -77.8757 -1.94945 1.40113 -25.719 6.01546 0.124831 3.66515 5.58676 -28.5336 -2.73329e-016 3.97569e-016 1.59028e-015 -3.72721e-016 4.96962e-016 1.59028e-015 3.97569e-016 3.97569e-016 1.59028e-015 -2.73329e-016 3.97569e-016 1.59028e-015 -0.0146297 -8.77492e-005 1.87333e-006 6.21202e-016 0 1.59028e-015 -2.73329e-016 3.97569e-016 1.59028e-015 -0.0187447 -0.00117659 5.91327e-005 6.00308e-007 -9.27178e-008 7.53405e-009 -2.73329e-016 3.97569e-016 1.59028e-015 -0.0122337 -0.0032414 0.000676386 5.99756e-007 -9.25455e-008 7.47618e-009 -2.73329e-016 3.97569e-016 1.59028e-015 -3.72721e-016 4.96962e-016 1.59028e-015 3.97569e-016 3.97569e-016 1.59028e-015 6.15102 13.5822 -8.5838 73.7341 -1.81896 -4.26627 12.6093 2.96061 -0.150975 3.45984 5.47065 24.9812 -3.63872e-007 3.90885e-007 -4.11677e-007 -7.95139e-016 1.59028e-015 3.18055e-015 -7.95139e-016 4.77083e-015 3.18055e-015 -3.63872e-007 3.90885e-007 -4.11677e-007 0.0150026 -8.97724e-005 1.11395e-006 -3.65173e-007 3.90839e-007 -4.11728e-007 -3.63872e-007 3.90885e-007 -4.11677e-007 0.0189752 -0.00119157 -6.27636e-005 3.97569e-016 0 3.18055e-015 -3.63872e-007 3.90885e-007 -4.11677e-007 0.012295 -0.00325702 -0.000675255 3.64952e-007 -3.91121e-007 4.1165e-007 -3.63872e-007 3.90885e-007 -4.11677e-007 -7.95139e-016 1.59028e-015 3.18055e-015 -7.95139e-016 4.77083e-015 3.18055e-015 0.944619 -20.6492 -14.7955 -142.844 78.9734 140.719 11.536 27.6749 -14.2436 7.09944e-007 2.56553e-007 1.53078e-006 -0.813627 -21.0732 14.191 90.9833 82.9987 -89.778 -28.9574 55.3892 49.3787 2.34178e-006 9.09309e-007 2.42998e-006 
-0.00452081 -18.643 0.0839457 0 21.7317 -0 -0.248969 2.00465 -0.179231 -0.492111 4.01007 -0.35006 -0.492111 4.01008 -0.350061 -3.74964e-006 6.60802 -4.18738e-006 1.55344e-007 10.6268 -4.76087e-008 5.22137 11.924 4.93622 -77.8755 -1.94946 1.40122 -25.5495 5.94699 0.125208 3.52844 5.39368 -28.5489 -1.16786e-015 -1.98785e-016 -0 -1.01877e-015 -9.93923e-017 -0 -9.19379e-016 -4.96962e-016 -0 -1.16786e-015 -1.98785e-016 -0 -0.0145991 -9.05764e-005 -1.28652e-006 3.03147e-015 1.98785e-016 -1.59028e-015 -1.16786e-015 -1.98785e-016 -0 -0.0187603 -0.00117591 5.88214e-005 -2.01269e-015 3.97569e-016 -1.59028e-015 -1.16786e-015 -1.98785e-016 -0 -0.0122961 -0.00325178 0.000676315 1.15792e-014 -2.98177e-015 1.59028e-015 -1.16786e-015 -1.98785e-016 -0 -1.01877e-015 -9.93923e-017 -0 -9.19379e-016 -4.96962e-016 -0 6.43162 12.7217 -8.39266 73.5658 -1.79798 -4.23273 12.4808 2.94561 -0.151155 3.55404 5.2665 25.0328 -1.51087e-007 5.74426e-007 -6.06092e-007 -1.51087e-007 5.74426e-007 -6.06092e-007 -1.51087e-007 5.74426e-007 -6.06092e-007 -1.51087e-007 5.74426e-007 -6.06092e-007 0.014996 -9.06606e-005 5.89823e-007 -1.511e-007 5.74347e-007 -6.06167e-007 -1.51087e-007 5.74426e-007 -6.06092e-007 0.0189752 -0.00118884 -6.03398e-005 -1.51109e-007 5.74327e-007 -6.06185e-007 -1.51087e-007 5.74426e-007 -6.06092e-007 0.0122885 -0.00324813 -0.000681705 -1.51118e-007 5.74363e-007 -6.06148e-007 -1.51087e-007 5.74426e-007 -6.06092e-007 -1.51087e-007 5.74426e-007 -6.06092e-007 -1.51087e-007 5.74426e-007 -6.06092e-007 0.968756 -20.1955 -14.7617 -142.903 78.9552 140.775 11.5361 27.674 -14.244 3.41768e-007 -2.90345e-006 1.4694e-006 -0.832228 -20.6179 14.1597 90.7543 83.0018 -89.5517 -28.9555 55.3896 49.3769 -3.78763e-006 -8.94758e-007 -1.26745e-006 
-0.00449424 -18.6408 0.194886 0 21.4008 -0 -0.249672 2.27214 -0.17893 -0.492817 4.54504 -0.348352 -0.492817 4.54503 -0.348352 -3.93903e-006 6.60792 -3.55078e-006 1.80079e-007 11.0523 3.92748e-008 5.10179 11.0804 4.86065 -77.8753 -1.94946 1.40129 -25.3799 5.87926 0.12559 3.39172 5.20063 -28.5646 1.52721e-007 1.19534e-006 7.54375e-008 -1.52219e-007 -1.27078e-006 1.11991e-006 1.52721e-007 1.19534e-006 7.54375e-008 1.52721e-007 1.19534e-006 7.54375e-008 -0.0145882 -9.0557e-005 -6.52302e-007 1.52721e-007 1.19533e-006 7.55895e-008 1.52721e-007 1.19534e-006 7.54375e-008 -0.0187716 -0.00117683 5.51555e-005 1.52722e-007 1.19533e-006 7.56317e-008 1.52721e-007 1.19534e-006 7.54375e-008 -0.0122491 -0.00324343 0.000676122 1.5273e-007 1.19533e-006 7.55609e-008 1.52721e-007 1.19534e-006 7.54375e-008 -1.52219e-007 -1.27078e-006 1.11991e-006 1.52721e-007 1.19534e-006 7.54375e-008 6.71406 11.8627 -8.19797 73.3976 -1.77711 -4.19915 12.3524 2.93086 -0.151339 3.6484 5.06243 25.0847 -0 -2.38542e-015 -0 3.97569e-016 0 3.18055e-015 -8.82781e-032 -7.95139e-016 -6.36111e-015 -0 -2.38542e-015 -0 0.0150144 -9.06617e-005 3.14778e-006 -3.97569e-016 0 -3.18055e-015 -0 -2.38542e-015 -0 0.0190003 -0.0011893 -5.56723e-005 2.64834e-031 -1.59028e-015 9.54166e-015 -0 -2.38542e-015 -0 0.0122637 -0.00324598 -0.000677967 7.95139e-016 0 6.36111e-015 -0 -2.38542e-015 -0 3.97569e-016 0 3.18055e-015 -8.82781e-032 -7.95139e-016 -6.36111e-015 0.992526 -19.7418 -14.7282 -142.961 78.9371 140.831 11.5362 27.6731 -14.2445 1.65281e-007 -2.96957e-006 1.08578e-006 -0.850511 -20.1627 14.1287 90.5258 83.0048 -89.3258 -28.9536 55.3899 49.3751 2.70523e-006 -1.65496e-006 -2.67386e-006 
